<svg width="20" height="12" viewBox="0 0 20 12" fill="none" xmlns="http://www.w3.org/2000/svg">
<path fill-rule="evenodd" clip-rule="evenodd" d="M19.999 5.8C19.999 6.01761 19.9104 6.22584 19.7535 6.37667L14.5535 11.3767C14.235 11.6829 13.7286 11.673 13.4224 11.3545C13.1161 11.036 13.1261 10.5296 13.4445 10.2233L17.2128 6.6L0.799806 6.6C0.357979 6.6 -0.000192915 6.24183 -0.000192896 5.8C-0.000192876 5.35817 0.357979 5 0.799806 5L17.2128 5L13.4445 1.37667C13.1261 1.07043 13.1161 0.563998 13.4224 0.245514C13.7286 -0.0729704 14.235 -0.0829004 14.5535 0.223334L19.7535 5.22333C19.9104 5.37416 19.999 5.58239 19.999 5.8Z" fill="#325EE6"/>
</svg>
