<svg width="24" height="25" viewBox="0 0 24 25" fill="none" xmlns="http://www.w3.org/2000/svg">
<path d="M0 12.5C0 5.87258 5.37258 0.5 12 0.5C18.6274 0.5 24 5.87258 24 12.5C24 19.1274 18.6274 24.5 12 24.5C5.37258 24.5 0 19.1274 0 12.5Z" fill="#F0F0F0"/>
<g clip-path="url(#clip0_202_24650)">
<path d="M18.729 11.9679C18.6239 10.6389 18.1276 9.37081 17.3028 8.32352C16.4779 7.27623 15.3614 6.49663 14.0941 6.08305C12.8268 5.66947 11.4653 5.64042 10.1815 5.99957C8.89767 6.35873 7.74894 7.08999 6.88018 8.10115C6.01141 9.11232 5.46151 10.3581 5.29983 11.6814C5.13815 13.0046 5.37193 14.3462 5.97168 15.5368C6.57144 16.7273 7.51031 17.7137 8.6699 18.3714C9.82949 19.0291 11.1579 19.3287 12.4875 19.2324" stroke="black" stroke-linecap="round" stroke-linejoin="round"/>
<path d="M5.7002 10.25H18.3002" stroke="black" stroke-linecap="round" stroke-linejoin="round"/>
<path d="M5.7002 14.75H12.3752" stroke="black" stroke-linecap="round" stroke-linejoin="round"/>
<path d="M11.6248 5.75C10.3613 7.77471 9.69141 10.1134 9.69141 12.5C9.69141 14.8866 10.3613 17.2253 11.6248 19.25" stroke="black" stroke-linecap="round" stroke-linejoin="round"/>
<path d="M12.375 5.75C13.6415 7.77835 14.3115 10.1222 14.3085 12.5135" stroke="black" stroke-linecap="round" stroke-linejoin="round"/>
<path d="M18.8408 18.5912C19.1555 18.2766 19.3698 17.8757 19.4567 17.4392C19.5436 17.0027 19.4991 16.5503 19.3288 16.1391C19.1585 15.7279 18.8701 15.3765 18.5001 15.1292C18.1301 14.882 17.695 14.75 17.25 14.75C16.805 14.75 16.3699 14.882 15.9999 15.1292C15.6299 15.3765 15.3415 15.7279 15.1712 16.1391C15.0009 16.5503 14.9564 17.0027 15.0433 17.4392C15.1302 17.8757 15.3445 18.2766 15.6593 18.5912C15.9728 18.9055 16.503 19.375 17.25 20.0005C18.0383 19.333 18.5693 18.8635 18.8408 18.5912Z" stroke="black" stroke-linecap="round" stroke-linejoin="round"/>
<path d="M17.25 17V17.0075" stroke="black" stroke-linecap="round" stroke-linejoin="round"/>
</g>
<defs>
<clipPath id="clip0_202_24650">
<rect width="18" height="18" fill="white" transform="translate(3 3.5)"/>
</clipPath>
</defs>
</svg>
