<svg width="24" height="25" viewBox="0 0 24 25" fill="none" xmlns="http://www.w3.org/2000/svg">
<path d="M0 12.5C0 5.87258 5.37258 0.5 12 0.5C18.6274 0.5 24 5.87258 24 12.5C24 19.1274 18.6274 24.5 12 24.5C5.37258 24.5 0 19.1274 0 12.5Z" fill="white"/>
<g clip-path="url(#clip0_202_24666)">
<path d="M12 19.25V16.25" stroke="#1D1D1D" stroke-linecap="round" stroke-linejoin="round"/>
<path d="M12 13.25V10.25" stroke="#1D1D1D" stroke-linecap="round" stroke-linejoin="round"/>
<path d="M12 7.25V5.75" stroke="#1D1D1D" stroke-linecap="round" stroke-linejoin="round"/>
<path d="M10.5 19.25H13.5" stroke="#1D1D1D" stroke-linecap="round" stroke-linejoin="round"/>
<path d="M9 7.25V10.25H17.25L18.75 8.75L17.25 7.25H9Z" stroke="#1D1D1D" stroke-linecap="round" stroke-linejoin="round"/>
<path d="M13.5 13.25V16.25H7.5L6 14.75L7.5 13.25H13.5Z" stroke="#1D1D1D" stroke-linecap="round" stroke-linejoin="round"/>
</g>
<defs>
<clipPath id="clip0_202_24666">
<rect width="18" height="18" fill="white" transform="translate(3 3.5)"/>
</clipPath>
</defs>
</svg>
